<?xml version="1.0" encoding="UTF-8" standalone="no"?>
<!-- Created with Inkscape (http://www.inkscape.org/) -->

<svg
   width="210mm"
   height="297mm"
   viewBox="0 0 210 297"
   version="1.1"
   id="svg1"
   inkscape:version="1.3.2 (091e20e, 2023-11-25, custom)"
   sodipodi:docname="лого.svg"
   xmlns:inkscape="http://www.inkscape.org/namespaces/inkscape"
   xmlns:sodipodi="http://sodipodi.sourceforge.net/DTD/sodipodi-0.dtd"
   xmlns="http://www.w3.org/2000/svg"
   xmlns:svg="http://www.w3.org/2000/svg">
  <sodipodi:namedview
     id="namedview1"
     pagecolor="#ffffff"
     bordercolor="#000000"
     borderopacity="0.25"
     inkscape:showpageshadow="2"
     inkscape:pageopacity="0.0"
     inkscape:pagecheckerboard="0"
     inkscape:deskcolor="#d1d1d1"
     inkscape:document-units="mm"
     inkscape:zoom="0.36569515"
     inkscape:cx="411.54498"
     inkscape:cy="597.49221"
     inkscape:window-width="1920"
     inkscape:window-height="1017"
     inkscape:window-x="-8"
     inkscape:window-y="-8"
     inkscape:window-maximized="1"
     inkscape:current-layer="layer1" />
  <defs
     id="defs1" />
  <g
     inkscape:label="Слой 1"
     inkscape:groupmode="layer"
     id="layer1">
    <path
       style="fill:#c28416;fill-opacity:1;stroke:#000000;stroke-width:1.98983;stroke-dasharray:none;stroke-opacity:1"
       d="M 90.546068,36.21965 V 5.5040909 c 0,0 13.718872,-4.98906816 30.050812,0 V 35.961998"
       id="path3-1" />
    <path
       style="fill:#085322;fill-opacity:1;stroke:#000000;stroke-width:2.12966;stroke-dasharray:none;stroke-opacity:1"
       d="m 123.07968,63.906901 c 40.83333,1.029441 42.98246,57.648629 42.98246,57.648629 l -0.40318,157.76251 c -61.46723,31.43082 -120.805908,-0.0252 -121.29045,-0.25728 l 0.805462,-157.50523 c 0,0 2.149123,-56.619188 42.982461,-57.648629 l -0.02644,-31.577128 c 0,0 15.929987,5.248982 34.937707,0 z"
       id="path1"
       sodipodi:nodetypes="ccccccccc" />
    <g
       id="g4"
       transform="matrix(1.4852105,0,0,1.4228449,-47.238318,-76.611588)">
      <ellipse
         style="fill:#ffffff;fill-opacity:1;stroke:#000000;stroke-width:1.48368;stroke-dasharray:none;stroke-opacity:1"
         id="path3"
         ry="55.882664"
         rx="54.475773"
         cy="176.3732"
         cx="102.57528" />
      <path
         style="fill:#76dde8;fill-opacity:1;stroke:#000000;stroke-width:1.465;stroke-dasharray:none;stroke-opacity:1"
         d="m 146.31684,143.11936 c 0,0 13.94103,17.13851 9.97615,42.20678 -16.49901,10.10405 -36.51256,10.79953 -41.95098,2.04639 -8.61373,-13.86379 -9.00702,-21.77718 -4.86018,-34.40492 5.15939,-15.71111 36.83501,-9.84825 36.83501,-9.84825 z"
         id="path4"
         sodipodi:nodetypes="ccssc" />
    </g>
  </g>
</svg>
